<svg width="32" height="32" viewBox="0 0 101 101" fill="none" xmlns="http://www.w3.org/2000/svg">
<path d="M100.181 70.3807C99.3467 69.0165 97.0017 66.8944 91.1651 67.9049C87.9342 68.4607 84.6511 68.7134 81.3681 68.5618C75.5126 68.3043 69.77 66.9107 64.4799 64.4632C59.1898 62.0158 54.4598 58.5644 50.5698 54.3132C43.7952 46.9868 39.6263 37.4373 39.5742 27.1298C39.5742 21.3697 40.7206 15.8118 43.0657 10.557C45.3586 5.45379 43.7431 2.77586 42.5967 1.66427C41.3981 0.502156 38.584 -1.1147 33.0601 1.10848C11.7463 9.79909 -1.43806 30.5151 0.125299 52.6964C1.68866 73.5639 16.8012 91.3999 36.8122 98.12C41.6636 99.7611 46.7386 100.698 51.8726 100.899C52.7064 100.949 53.5402 101 54.374 101C71.8316 101 88.1947 93.0168 98.5129 79.425C102.004 74.726 101.066 71.745 100.181 70.3807Z" fill="white"/>
</svg>
