<svg width="32" height="38" viewBox="0 0 134 140" fill="none" xmlns="http://www.w3.org/2000/svg">
<path fill-rule="evenodd" clip-rule="evenodd" d="M69.6633 26.5183C69.2425 25.5413 69.0847 24.4629 69.2068 23.3992C69.3289 22.3355 69.7263 21.3267 70.3562 20.4813C70.9862 19.636 71.8248 18.9861 72.782 18.6016C73.7391 18.2171 74.7784 18.1125 75.7882 18.2992C88.1697 20.5824 99.2821 27.632 106.932 38.0565C114.582 48.4811 118.214 61.523 117.11 74.6082C116.006 87.6934 110.248 99.8709 100.971 108.737C91.6941 117.603 79.5729 122.514 67 122.5C42.2435 122.5 21.6745 103.798 17.5149 79.1817C17.3363 78.1267 17.4364 77.0408 17.8044 76.0408C18.1724 75.0408 18.7945 74.1646 19.6036 73.5065C20.4127 72.8483 21.3783 72.4331 22.3964 72.3055C23.4146 72.178 24.4467 72.3429 25.3819 72.7825C31.5788 75.6889 38.4749 76.5586 45.1558 75.276C51.8366 73.9934 57.9864 70.6193 62.7896 65.601C67.5927 60.5828 70.8223 54.1576 72.0499 47.1777C73.2775 40.1977 72.4452 32.9927 69.6633 26.5183ZM83.0856 32.7717C84.3265 40.1552 83.8466 47.7425 81.6865 54.8912C79.5264 62.04 75.7497 68.5398 70.6761 73.8407C65.6024 79.1415 59.3811 83.0873 52.5388 85.3441C45.6964 87.6009 38.4343 88.1023 31.3672 86.8058C35.0487 95.3116 41.4079 102.243 49.3859 106.447C57.3639 110.65 66.4792 111.871 75.2142 109.907C83.9492 107.943 91.7767 102.912 97.3934 95.652C103.01 88.392 106.077 79.3409 106.083 70.0058C106.085 62.1449 103.916 54.4505 99.8353 47.8459C95.755 41.2413 89.9427 36.0072 83.0856 32.7717ZM31.0713 45.01L31.4286 45.8267C32.952 49.115 35.3498 51.8754 38.3352 53.7775L38.8935 54.1217C38.9515 54.1564 38.9997 54.2065 39.0333 54.2669C39.0668 54.3274 39.0844 54.396 39.0844 54.4658C39.0844 54.5357 39.0668 54.6043 39.0333 54.6647C38.9997 54.7251 38.9515 54.7753 38.8935 54.81L38.3352 55.1483C35.349 57.052 32.9511 59.8145 31.4286 63.105L31.0713 63.9217C31.0403 63.9953 30.9895 64.0579 30.9251 64.1018C30.8606 64.1458 30.7853 64.1692 30.7084 64.1692C30.6314 64.1692 30.5561 64.1458 30.4917 64.1018C30.4272 64.0579 30.3764 63.9953 30.3454 63.9217L29.9881 63.105C28.4656 59.8145 26.0677 57.052 23.0815 55.1483L22.5232 54.81C22.4652 54.7753 22.417 54.7251 22.3835 54.6647C22.3499 54.6043 22.3323 54.5357 22.3323 54.4658C22.3323 54.396 22.3499 54.3274 22.3835 54.2669C22.417 54.2065 22.4652 54.1564 22.5232 54.1217L23.0815 53.7775C26.0657 51.8729 28.4615 49.1106 29.9825 45.8208L30.3399 45.0042C30.3708 44.9305 30.4216 44.8679 30.4861 44.824C30.5505 44.78 30.6258 44.7566 30.7028 44.7566C30.7797 44.7566 30.855 44.78 30.9195 44.824C30.9839 44.8679 31.0347 44.9305 31.0657 45.0042L31.0713 45.01ZM46.8833 16.6658C47.1066 16.1408 47.8101 16.1408 48.0334 16.6658L48.6029 17.9608C51.0272 23.2012 54.846 27.6002 59.6021 30.6308L60.4787 31.1675C60.5729 31.222 60.6515 31.3018 60.7062 31.3988C60.7609 31.4957 60.7898 31.6062 60.7898 31.7187C60.7898 31.8313 60.7609 31.9418 60.7062 32.0387C60.6515 32.1356 60.5729 32.2155 60.4787 32.27L59.5965 32.8067C54.4461 36.0907 50.4056 40.9728 48.039 46.7717C47.9898 46.889 47.909 46.9888 47.8063 47.0589C47.7037 47.129 47.5837 47.1663 47.4611 47.1663C47.3385 47.1663 47.2186 47.129 47.116 47.0589C47.0133 46.9888 46.9325 46.889 46.8833 46.7717L46.3138 45.4767C43.8896 40.2363 40.0707 35.8373 35.3146 32.8067L34.4324 32.27C34.3382 32.2155 34.2596 32.1356 34.2049 32.0387C34.1502 31.9418 34.1214 31.8313 34.1214 31.7187C34.1214 31.6062 34.1502 31.4957 34.2049 31.3988C34.2596 31.3018 34.3382 31.222 34.4324 31.1675L35.3146 30.6308C40.0707 27.6002 43.8896 23.2012 46.3138 17.9608L46.8833 16.6658Z" fill="#F0EC8B"/>
</svg>
