<svg width="32" height="32" viewBox="0 0 133 122" fill="none" xmlns="http://www.w3.org/2000/svg">
<path d="M66.6211 100C72.1886 100 77.7015 98.9941 82.8451 97.0398C87.9887 95.0854 92.6623 92.2209 96.5991 88.6097C100.536 84.9985 103.659 80.7115 105.789 75.9933C107.92 71.275 109.016 66.2181 109.016 61.1111C109.016 56.0042 107.92 50.9472 105.789 46.229C103.659 41.5108 100.536 37.2237 96.5991 33.6125C92.6623 30.0013 87.9887 27.1368 82.8451 25.1825C77.7015 23.2281 72.1886 22.2222 66.6211 22.2222C55.3772 22.2222 44.5938 26.3194 36.6432 33.6125C28.6925 40.9056 24.2259 50.7971 24.2259 61.1111C24.2259 71.4251 28.6925 81.3166 36.6432 88.6097C44.5938 95.9028 55.3772 100 66.6211 100ZM66.6211 122C63.2901 122 60.5647 119.722 60.5647 116.667V116.222C60.5647 113.167 63.2901 110.667 66.6211 110.667C69.9522 110.667 72.6776 113.167 72.6776 116.222C72.6776 119.278 69.9522 122 66.6211 122ZM109.864 106.333C108.29 106.333 106.776 105.778 105.564 104.722L104.777 104C104.216 103.486 103.771 102.875 103.468 102.203C103.164 101.531 103.008 100.811 103.008 100.083C103.008 99.3559 103.164 98.6357 103.468 97.9637C103.771 97.2916 104.216 96.681 104.777 96.1667C105.338 95.6523 106.003 95.2443 106.736 94.966C107.468 94.6876 108.254 94.5443 109.047 94.5443C109.84 94.5443 110.625 94.6876 111.357 94.966C112.09 95.2443 112.756 95.6523 113.316 96.1667L114.104 96.8889C114.945 97.6614 115.519 98.645 115.752 99.7159C115.985 100.787 115.868 101.897 115.415 102.907C114.961 103.917 114.192 104.781 113.205 105.391C112.217 106 111.055 106.328 109.864 106.333ZM23.378 106.333C21.8033 106.333 20.2892 105.778 19.0779 104.722C18.5164 104.208 18.071 103.598 17.7671 102.926C17.4631 102.254 17.3067 101.533 17.3067 100.806C17.3067 100.078 17.4631 99.3575 17.7671 98.6854C18.071 98.0134 18.5164 97.4029 19.0779 96.8889L19.8652 96.1667C20.4259 95.6523 21.0916 95.2443 21.8242 94.966C22.5568 94.6876 23.342 94.5443 24.135 94.5443C24.928 94.5443 25.7132 94.6876 26.4458 94.966C27.1784 95.2443 27.8441 95.6523 28.4048 96.1667C28.9655 96.681 29.4103 97.2916 29.7138 97.9637C30.0173 98.6357 30.1734 99.3559 30.1734 100.083C30.1734 100.811 30.0173 101.531 29.7138 102.203C29.4103 102.875 28.9655 103.486 28.4048 104L27.6175 104.722C26.4668 105.778 24.8921 106.333 23.378 106.333ZM127.186 66.6667H126.701C123.37 66.6667 120.645 64.1667 120.645 61.1111C120.645 58.0556 123.37 55.5556 126.701 55.5556C130.032 55.5556 133 58.0556 133 61.1111C133 64.1667 130.517 66.6667 127.186 66.6667ZM6.54098 66.6667H6.05647C2.72541 66.6667 0 64.1667 0 61.1111C0 58.0556 2.72541 55.5556 6.05647 55.5556C9.38752 55.5556 12.3552 58.0556 12.3552 61.1111C12.3552 64.1667 9.87204 66.6667 6.54098 66.6667ZM109.077 27.7222C107.502 27.7222 105.988 27.1667 104.777 26.1111C104.215 25.5971 103.77 24.9867 103.466 24.3146C103.162 23.6425 103.006 22.922 103.006 22.1944C103.006 21.4668 103.162 20.7464 103.466 20.0743C103.77 19.4022 104.215 18.7917 104.777 18.2778L105.564 17.5556C106.125 17.0412 106.791 16.6332 107.523 16.3549C108.256 16.0765 109.041 15.9332 109.834 15.9332C110.627 15.9332 111.412 16.0765 112.145 16.3549C112.877 16.6332 113.543 17.0412 114.104 17.5556C114.665 18.0699 115.109 18.6805 115.413 19.3525C115.716 20.0246 115.872 20.7448 115.872 21.4722C115.872 22.1996 115.716 22.9199 115.413 23.5919C115.109 24.2639 114.665 24.8745 114.104 25.3889L113.316 26.1111C112.166 27.1667 110.652 27.7222 109.077 27.7222ZM24.1653 27.7222C22.5906 27.7222 21.0765 27.1667 19.8652 26.1111L19.0779 25.3333C18.5172 24.819 18.0724 24.2084 17.7689 23.5364C17.4654 22.8643 17.3093 22.1441 17.3093 21.4167C17.3093 20.6893 17.4654 19.969 17.7689 19.297C18.0724 18.625 18.5172 18.0143 19.0779 17.5C19.6386 16.9857 20.3043 16.5777 21.0369 16.2993C21.7695 16.0209 22.5547 15.8777 23.3477 15.8777C24.1407 15.8777 24.9259 16.0209 25.6585 16.2993C26.3911 16.5777 27.0568 16.9857 27.6175 17.5L28.4048 18.2222C30.7669 20.3889 30.7669 23.8889 28.4048 26.0556C27.2541 27.1667 25.6794 27.7222 24.1653 27.7222ZM66.6211 11.3333C63.2901 11.3333 60.5647 9.05556 60.5647 6V5.55556C60.5647 2.5 63.2901 0 66.6211 0C69.9522 0 72.6776 2.5 72.6776 5.55556C72.6776 8.61111 69.9522 11.3333 66.6211 11.3333Z" fill="white"/>
</svg>
