<svg width="32" height="32" viewBox="0 0 79 79" fill="none" xmlns="http://www.w3.org/2000/svg">
<path d="M39.5 61.0454C33.7858 61.0454 28.3056 58.7755 24.2651 54.7349C20.2245 50.6944 17.9545 45.2142 17.9545 39.5C17.9545 33.7858 20.2245 28.3056 24.2651 24.2651C28.3056 20.2245 33.7858 17.9545 39.5 17.9545C45.2142 17.9545 50.6944 20.2245 54.7349 24.2651C58.7755 28.3056 61.0455 33.7858 61.0455 39.5C61.0455 45.2142 58.7755 50.6944 54.7349 54.7349C50.6944 58.7755 45.2142 61.0454 39.5 61.0454ZM39.5 53.8636C43.3095 53.8636 46.9629 52.3503 49.6566 49.6566C52.3503 46.9629 53.8636 43.3095 53.8636 39.5C53.8636 35.6905 52.3503 32.0371 49.6566 29.3434C46.9629 26.6497 43.3095 25.1364 39.5 25.1364C35.6905 25.1364 32.0371 26.6497 29.3434 29.3434C26.6497 32.0371 25.1364 35.6905 25.1364 39.5C25.1364 43.3095 26.6497 46.9629 29.3434 49.6566C32.0371 52.3503 35.6905 53.8636 39.5 53.8636ZM35.9091 0H43.0909V10.7727H35.9091V0ZM35.9091 68.2273H43.0909V79H35.9091V68.2273ZM9.03114 14.1087L14.1087 9.03114L21.725 16.6475L16.6475 21.725L9.03114 14.1087ZM57.275 62.3525L62.3525 57.275L69.9689 64.8913L64.8913 69.9689L57.275 62.3525ZM64.8913 9.02755L69.9689 14.1087L62.3525 21.725L57.275 16.6475L64.8913 9.03114V9.02755ZM16.6475 57.275L21.725 62.3525L14.1087 69.9689L9.03114 64.8913L16.6475 57.275ZM79 35.9091V43.0909H68.2273V35.9091H79ZM10.7727 35.9091V43.0909H0V35.9091H10.7727Z" fill="#F0EC8B"/>
</svg>
